<?xml version="1.0" encoding="UTF-8"?>
<svg version="1.1" xmlns="http://www.w3.org/2000/svg" width="122" height="122">
<path d="M0,0 L5,1 L16,12 L15,17 L-51,83 L-66,88 L-71,87 L-72,82 L-67,67 Z M1,6 L-9,16 L-7,20 L-2,25 L2,23 L10,15 L8,11 L3,6 Z M-14,21 L-62,69 L-65,78 L-65,81 L-56,79 L-51,76 L-5,30 L-7,26 L-12,21 Z " fill="#000000" transform="translate(102,4)"/>
<path d="M0,0 L62,0 L64,4 L62,6 L1,6 L1,102 L97,102 L97,41 L101,39 L103,41 L103,103 L98,108 L0,108 L-5,103 L-5,5 Z " fill="#000000" transform="translate(7,12)"/>
</svg>
